<svg xmlns="http://www.w3.org/2000/svg" xmlns:xlink="http://www.w3.org/1999/xlink" width="500" zoomAndPan="magnify" viewBox="0 0 375 374.999991" height="500" preserveAspectRatio="xMidYMid meet" version="1.0"><defs><clipPath id="d628ecfc18"><path d="M 0.277344 3.75 L 374.691406 3.75 L 374.691406 371.25 L 0.277344 371.25 Z M 0.277344 3.75 " clip-rule="nonzero"/></clipPath></defs><g clip-path="url(#d628ecfc18)"><path fill="#000000" d="M 374.65625 192.476562 C 372.601562 88.285156 286.40625 3.746094 182.21875 3.746094 C 91.128906 3.746094 16.375 68.234375 0.277344 153.957031 C 5.960938 135.488281 17.089844 111.726562 38.714844 91.597656 C 81.101562 52.054688 113.230469 47.792969 113.230469 47.792969 C 16.695312 98.625 -8.089844 219.074219 26.71875 290.984375 C 47.007812 323.109375 76.605469 348.921875 111.574219 364.628906 C 121.359375 366.996094 130.828125 367.390625 130.59375 354.210938 L 130.671875 354.210938 C 124.75 331.632812 111.652344 288.457031 105.179688 282.378906 C 96.730469 274.484375 77.628906 278.75 69.972656 269.199219 C 62.316406 259.566406 33.980469 138.246094 33.980469 138.246094 C 33.980469 138.246094 36.503906 135.328125 39.109375 136.355469 C 41.714844 137.539062 73.132812 245.679688 76.289062 248.125 C 79.449219 250.570312 78.894531 249.148438 80.707031 249.230469 C 82.050781 248.835938 83.945312 248.597656 84.339844 243.546875 C 84.738281 238.414062 49.6875 137.457031 49.609375 135.800781 C 49.453125 134.066406 49.058594 128.777344 53.003906 129.488281 C 56.949219 130.121094 94.128906 235.179688 96.417969 237.78125 C 98.78125 240.386719 100.128906 239.757812 101.863281 239.601562 C 103.046875 238.652344 104.070312 238.570312 104.070312 235.257812 C 104.152344 232.019531 63.1875 128.144531 65.710938 125.144531 C 68.238281 122.066406 71.472656 126.328125 72.5 127.75 C 73.527344 129.171875 113.464844 228.46875 117.097656 232.019531 C 120.648438 235.570312 122.148438 234.628906 123.414062 234.152344 C 124.910156 232.886719 125.464844 234.234375 126.332031 230.363281 C 127.121094 226.414062 79.683594 124.121094 80.867188 121.59375 C 82.128906 119.148438 86.074219 119.777344 86.074219 119.777344 C 86.074219 119.777344 144.25 230.363281 144.804688 242.441406 C 145.355469 254.597656 127.753906 264.777344 126.648438 276.144531 C 125.699219 284.90625 146.382812 332.1875 158.222656 356.5 C 160.746094 361.078125 165.007812 367.3125 170.613281 369.679688 C 180.007812 373.707031 183.796875 369.917969 183.875 360.445312 L 184.980469 253.726562 C 184.585938 250.097656 183.953125 246.546875 182.691406 243.941406 C 181.265625 241.179688 179.21875 239.046875 177.324219 237.625 C 158.695312 231.390625 145.039062 213.316406 144.410156 181.1875 C 143.699219 140.460938 164.140625 92.46875 190.582031 92.46875 C 217.027344 92.46875 239.363281 140.460938 240.152344 181.1875 C 240.789062 211.5 229.261719 229.257812 212.527344 236.441406 C 210.550781 238.175781 207.871094 240.863281 206.214844 244.097656 C 205.109375 246.386719 204.554688 250.414062 204.394531 254.359375 L 208.5 358.3125 L 208.582031 358.3125 C 208.582031 358.3125 211.898438 368.65625 217.5 368.335938 C 220.34375 368.179688 222.234375 364.628906 223.421875 361.234375 L 223.339844 361.234375 C 223.339844 361.234375 223.738281 359.8125 224.523438 357.289062 C 224.84375 355.789062 224.996094 354.761719 224.996094 354.761719 L 225.234375 354.84375 C 234.945312 322.164062 278.59375 174.71875 281.910156 160.351562 C 285.695312 144.167969 295.800781 107.230469 306.773438 113.464844 C 317.746094 119.699219 322.085938 166.347656 315.535156 217.339844 C 308.90625 268.332031 296.90625 298.5625 284.59375 311.269531 C 272.199219 323.898438 257.835938 315.375 252.074219 331.160156 C 248.203125 341.894531 245.519531 353.890625 244.179688 360.605469 C 244.574219 362.808594 246.074219 367.863281 251.28125 368.65625 C 253.964844 369.128906 257.046875 368.496094 259.730469 367.707031 C 261.863281 366.761719 264.066406 365.890625 266.199219 364.863281 C 331.476562 335.421875 376.152344 269.355469 374.65625 192.476562 " fill-opacity="1" fill-rule="evenodd"/></g></svg>